{"title":"Der Fall Jakob von Metzler (2012).mp4","uid":7693751,"size":1091983680,"categoryP":"video","categoryS":"movies","magnet":"?xt=urn:btih:ee94acb6da3d4db0c939471df4658b4dddc27369&amp;dn=Der+Fall+Jakob+von+Metzler+%282012%29.mp4&amp;tr=udp%3A%2F%2Ftracker.openbittorrent.com%3A80&amp;tr=udp%3A%2F%2Fopen.demonii.com%3A1337&amp;tr=udp%3A%2F%2Ftracker.coppersurfer.tk%3A6969&amp;tr=udp%3A%2F%2Fexodus.desync.com%3A6969","seeders":0,"leechers":0,"uploader":null,"files":1,"time":1349297087,"description":"Der Fall Jakob von Metzler\n==========================\n\nZDF, 2012\n\n\nDump aus der ZDF-Mediathek.\n\nAusgabe von ffprobe:\nInput #0, mov,mp4,m4a,3gp,3g2,mj2, from 'Der Fall Jakob von Metzler (2012).mp4':\n  Duration: 01:31:17.80, start: 0.000000, bitrate: 1594 kb/s\n    Stream #0.0(und): Video: h264, yuv420p, 852x480, 25 tbr, 25 tbn, 50 tbc\n    Stream #0.1(und): Audio: aac, 48000 Hz, stereo, s16\n\n\n\nDer Fall Jakob von Metzler ist ein deutscher Spielfilm von Stephan Wagner aus dem Jahr 2012 mit Robert Atzorn, Uwe Bohm und Johannes Allmayer in den Hauptrollen. Er beschreibt den realen Mordfall Jakob von Metzler und den anschlieÃŸenden Daschner-Prozess.\n-- http://de.wikipedia.org/wiki/Der_Fall_Jakob_von_Metzler\n\n &lt;a href=&quot;\nhttp://www.zdf.de/ZDF/zdfportal/web/ZDF.de/Der-Fernsehfilm-der-Woche/2942312/23968126/1d4936/Der-Fall-Jakob-von-Metzler.html&quot; rel=&quot;nofollow&quot; target=&quot;_NEW&quot;&gt;\nhttp://www.zdf.de/ZDF/zdfportal/web/ZDF.de/Der-Fernsehfilm-der-Woche/2942312/23968126/1d4936/Der-Fall-Jakob-von-Metzler.html&lt;/a&gt;","torrent":{"xt":"urn:btih:ee94acb6da3d4db0c939471df4658b4dddc27369","amp;dn":"Der+Fall+Jakob+von+Metzler+%282012%29.mp4","amp;tr":["udp%3A%2F%2Ftracker.openbittorrent.com%3A80","udp%3A%2F%2Fopen.demonii.com%3A1337","udp%3A%2F%2Ftracker.coppersurfer.tk%3A6969","udp%3A%2F%2Fexodus.desync.com%3A6969"],"infoHash":"ee94acb6da3d4db0c939471df4658b4dddc27369","infoHashBuffer":{"type":"Buffer","data":[238,148,172,182,218,61,77,176,201,57,71,29,244,101,139,77,221,194,115,105]},"announce":[],"urlList":[]}}